<svg width="80" height="80" viewBox="0 0 80 80" fill="none" xmlns="http://www.w3.org/2000/svg">
<g clip-path="url(#clip0_2_451)">
<path fill-rule="evenodd" clip-rule="evenodd" d="M31.2666 0H49.7334C60.4316 0 64.311 1.11391 68.2221 3.20559C72.1333 5.29728 75.2027 8.36674 77.2944 12.2779C79.3861 16.189 80.5 20.0684 80.5 30.7666V49.2334C80.5 59.9316 79.3861 63.811 77.2944 67.7221C75.2027 71.6333 72.1333 74.7027 68.2221 76.7944C64.311 78.8861 60.4316 80 49.7334 80H31.2666C20.5684 80 16.689 78.8861 12.7779 76.7944C8.86674 74.7027 5.79728 71.6333 3.70559 67.7221C1.61391 63.811 0.5 59.9316 0.5 49.2334V30.7666C0.5 20.0684 1.61391 16.189 3.70559 12.2779C5.79728 8.36674 8.86674 5.29728 12.7779 3.20559C16.689 1.11391 20.5684 0 31.2666 0Z" fill="#AFFF2C"/>
<path d="M37.5627 20.3125C34.6564 20.3125 32.7192 21.0624 31.2504 22.5311C30.1879 23.5936 29.8129 24.8127 29.6879 25.5627C27.9067 26.1252 25.3752 27.8127 25.3752 31.1877C25.3752 32.6252 25.6877 33.8127 26.3127 34.7815C24.8752 37.0315 24.9066 39.4374 26.4378 41.5936C24.7503 41.8436 23.4377 43.3439 23.5002 45.1251C23.5627 47.0001 25.1878 48.4375 27.0628 48.4375H29.0629C29.5629 48.4375 30.0314 48.0623 30.0627 47.5623C30.0939 47.031 29.6564 46.5625 29.1252 46.5625H26.9999C26.1874 46.5625 25.4689 45.9688 25.3752 45.1562C25.2814 44.2188 26.0314 43.4375 26.9377 43.4375H28.5002C29.0002 43.4375 29.4064 43.0311 29.4377 42.5311C29.4689 40.9686 29.6878 39.4689 30.0316 38.0939C30.1566 37.6251 30.5937 37.3435 31.0624 37.406C31.5624 37.4685 32.0628 37.5 32.5316 37.5C34.0003 37.5 35.3441 37.281 36.1253 37.0935C36.1878 37.0935 36.2191 37.0625 36.2816 37.0312C36.5003 37.1875 36.7187 37.3127 36.9999 37.4377C38.1874 38.0315 39.9064 38.4375 41.6252 38.4375C44.5314 38.4375 47.7188 37.5314 50.2501 36.2189C50.7501 35.9376 51.3754 36.2186 51.5629 36.7499C52.1567 38.4686 52.5002 40.4374 52.5627 42.5311C52.5939 43.0311 53.0002 43.4375 53.5002 43.4375H55.0004C55.8129 43.4375 56.5314 44.0312 56.6252 44.8438C56.7189 45.7812 55.9689 46.5625 55.0627 46.5625H52.9374C52.4374 46.5625 51.9689 46.9377 51.9377 47.4377C51.9064 47.969 52.3439 48.4375 52.8752 48.4375H55.0627C57.3127 48.4375 59.0628 46.2501 58.3128 43.8751C57.8753 42.4689 56.5314 41.5625 55.0627 41.5625C56.3127 39.0938 58.0942 34.7498 56.5629 31.156C55.4067 28.3748 51.9377 27.1876 50.6877 26.8439C49.8127 25.3439 45.9689 20.3125 37.5627 20.3125ZM54.4298 23.0164C54.252 23.007 54.0707 23.0507 53.9067 23.1561C52.9692 23.7186 52.1567 24.4685 51.5629 25.3748C51.2817 25.8123 51.3751 26.3751 51.8126 26.6876C51.9688 26.7501 52.1567 26.8127 52.3442 26.8127C52.6567 26.8127 52.9379 26.6562 53.1254 26.4062C53.5629 25.75 54.1878 25.1873 54.8753 24.7498C55.3128 24.4998 55.4691 23.9061 55.1878 23.4686C55.012 23.1952 54.7261 23.0319 54.4298 23.0164ZM41.0002 46.2732C40.3908 46.2732 39.7816 46.4534 39.2503 46.8127L31.9066 51.7499C31.0316 52.3436 30.8128 53.5311 31.4378 54.4061C33.5316 57.2811 36.7189 59.0936 41.0002 59.0936C45.2814 59.0936 48.4688 57.2812 50.5626 54.375C51.1876 53.5312 50.9688 52.3125 50.0938 51.7188L42.7501 46.8127C42.2188 46.4534 41.6096 46.2732 41.0002 46.2732Z" fill="black"/>
</g>
<defs>
<clipPath id="clip0_2_451">
<rect width="80" height="80" fill="white"/>
</clipPath>
</defs>
</svg>
