<svg width="80" height="80" viewBox="0 0 80 80" fill="none" xmlns="http://www.w3.org/2000/svg">
<g clip-path="url(#clip0_2_455)">
<path fill-rule="evenodd" clip-rule="evenodd" d="M31.2666 0H49.7334C60.4316 0 64.311 1.11391 68.2221 3.20559C72.1333 5.29728 75.2027 8.36674 77.2944 12.2779C79.3861 16.189 80.5 20.0684 80.5 30.7666V49.2334C80.5 59.9316 79.3861 63.811 77.2944 67.7221C75.2027 71.6333 72.1333 74.7027 68.2221 76.7944C64.311 78.8861 60.4316 80 49.7334 80H31.2666C20.5684 80 16.689 78.8861 12.7779 76.7944C8.86674 74.7027 5.79728 71.6333 3.70559 67.7221C1.61391 63.811 0.5 59.9316 0.5 49.2334V30.7666C0.5 20.0684 1.61391 16.189 3.70559 12.2779C5.79728 8.36674 8.86674 5.29728 12.7779 3.20559C16.689 1.11391 20.5684 0 31.2666 0Z" fill="#2D5BFF"/>
<path d="M57.8416 37.1279L53.35 36.3938C53.087 35.4924 52.7275 34.626 52.2776 33.806L54.8996 30.0691C55.1117 29.7673 55.0752 29.3562 54.8145 29.0947L51.8588 26.1406C51.5951 25.8777 51.1802 25.8435 50.8777 26.0616L47.197 28.7071C46.3694 28.2496 45.4954 27.8863 44.5887 27.6226L43.8051 23.1493C43.7413 22.786 43.4259 22.52 43.0565 22.52H38.8765C38.5041 22.52 38.1864 22.7898 38.1264 23.1576L37.3998 27.6067C36.4878 27.8689 35.6123 28.2283 34.7877 28.6798L31.1169 26.0578C30.8137 25.8412 30.401 25.8761 30.1373 26.1383L27.1832 29.0925C26.9225 29.3531 26.886 29.7635 27.098 30.0653L29.6813 33.7611C29.2215 34.5933 28.8552 35.4742 28.5884 36.3907L24.1568 37.1287C23.7905 37.1895 23.5215 37.5072 23.5215 37.8781V42.0581C23.5215 42.4267 23.786 42.7421 24.1485 42.8067L28.58 43.5925C28.8453 44.5068 29.2116 45.3876 29.6729 46.2221L27.0578 49.88C26.8419 50.1817 26.8761 50.5959 27.1383 50.8596L30.0932 53.8168C30.3539 54.0775 30.765 54.1139 31.0668 53.9019L34.768 51.3095C35.5986 51.7663 36.4764 52.1288 37.3862 52.3918L38.1279 56.8461C38.188 57.2117 38.5049 57.48 38.8765 57.48H43.0565C43.4251 57.48 43.7405 57.2155 43.8044 56.853L44.5986 52.3766C45.5098 52.1083 46.383 51.7435 47.2054 51.286L50.9332 53.9011C51.2356 54.1147 51.646 54.0775 51.9075 53.8168L54.8624 50.8596C55.1253 50.5959 55.1595 50.1802 54.9414 49.8777L52.2829 46.1864C52.7336 45.3656 53.0916 44.4977 53.3522 43.5963L57.8499 42.8067C58.214 42.7428 58.4785 42.4267 58.4785 42.0581V37.8781C58.4792 37.5057 58.2094 37.188 57.8416 37.1279ZM41 45.32C38.0618 45.32 35.68 42.9381 35.68 40C35.68 37.0618 38.0618 34.68 41 34.68C43.9381 34.68 46.32 37.0618 46.32 40C46.32 42.9381 43.9381 45.32 41 45.32Z" fill="white"/>
</g>
<defs>
<clipPath id="clip0_2_455">
<rect width="80" height="80" fill="white"/>
</clipPath>
</defs>
</svg>
