<svg width="200" height="30" viewBox="0 0 200 30" fill="none" xmlns="http://www.w3.org/2000/svg">
<g clip-path="url(#clip0_2_5)">
<path fill-rule="evenodd" clip-rule="evenodd" d="M16.3432 9.81968L13.0992 6.63245C10.9115 8.77268 9.55566 11.7336 9.55566 15.0005C9.55566 18.2676 10.9142 21.2216 13.0992 23.3718L16.3432 20.1802C15.5207 19.3705 14.8864 18.371 14.5163 17.257H26.7652C26.3952 18.371 25.7608 19.3705 24.9356 20.1802L28.1823 23.3718C30.3717 21.2216 31.7228 18.2676 31.7228 15.0005C31.7228 11.7336 30.3717 8.77268 28.1823 6.63245L24.9356 9.81968C25.7608 10.6291 26.3952 11.6305 26.7652 12.7442H14.5163C14.8864 11.6305 15.5207 10.6291 16.3432 9.81968Z" fill="black"/>
<path fill-rule="evenodd" clip-rule="evenodd" d="M31.6893 3.18855C34.7763 6.21521 36.6826 10.3933 36.6826 15.0005C36.6826 19.6077 34.7763 23.7874 31.6893 26.8058L34.9352 30C38.8562 26.155 41.2803 20.8503 41.2803 15.0005C41.2803 9.1497 38.8562 3.84602 34.9352 0L31.6893 3.18855ZM9.58837 3.18855L6.34208 0C2.42681 3.84602 0 9.1497 0 15.0005C0 20.8503 2.42681 26.155 6.34208 30L9.59409 26.8114C6.50706 23.7874 4.59773 19.6077 4.59773 15.0005C4.59773 10.3946 6.50706 6.21521 9.58837 3.18855Z" fill="black"/>
<path fill-rule="evenodd" clip-rule="evenodd" d="M187.211 15.158L189.135 11.751L191.037 15.158H187.211ZM182.886 23.4787L185.115 19.2707H193.118L195.54 23.4787L200 23.5414L193.726 11.4933C193.029 10.1416 192.437 9.20743 191.959 8.69025C191.185 7.84391 190.268 7.41852 189.203 7.41852C188.112 7.41852 187.169 7.81036 186.383 8.6029C185.829 9.1492 185.216 10.075 184.544 11.3847L178.274 23.5414L182.886 23.4787ZM172.807 7.37218H152.594V11.4509H172.397L155.126 15.1792C154.166 15.3796 153.388 15.8341 152.801 16.5472C152.209 17.2559 151.918 18.1027 151.918 19.0788C151.918 20.3422 152.433 21.3933 153.469 22.2273C154.458 23.0154 155.617 23.4117 156.944 23.4117H176.371V19.2081H157.359L173.729 15.6505C174.76 15.421 175.597 14.9581 176.219 14.2618C176.849 13.5655 177.162 12.7108 177.162 11.7095C177.162 10.4703 176.73 9.4409 175.88 8.61529C175.027 7.78474 174.007 7.37218 172.807 7.37218ZM132.463 7.37218C131.559 7.37218 130.796 7.46792 130.17 7.65199C129.54 7.84347 128.937 8.20668 128.354 8.74409C127.771 9.282 127.356 9.84507 127.107 10.4373C126.862 11.025 126.739 11.7223 126.739 12.5267V18.3697C126.739 19.0576 126.832 19.6335 127.033 20.1048C127.229 20.5716 127.576 21.0888 128.071 21.6642C128.642 22.3443 129.267 22.8239 129.96 23.1116C130.658 23.3949 131.474 23.541 132.421 23.541H149.381V19.2703H130.954V17.5687L149.381 17.5228V13.3652H130.844V11.4928H149.381V7.37218H132.463ZM101.844 7.43952V11.5557H111.219L111.305 23.479H115.394L115.373 11.4936H124.767V7.43952H101.844ZM81.165 19.3789H95.4615V11.6424H81.165V19.3789ZM98.5441 9.46166C98.9493 9.95367 99.2455 10.4373 99.4271 10.9214C99.6132 11.4006 99.7043 11.9553 99.7043 12.5934V18.5404C99.7043 19.2289 99.5837 19.8334 99.3405 20.3506C99.1019 20.8678 98.7147 21.3933 98.1799 21.9268C97.6516 22.4568 97.1148 22.8363 96.567 23.0658C96.0197 23.2952 95.3518 23.4117 94.5649 23.4117H82.1295C81.269 23.4117 80.5481 23.2864 79.9668 23.0322C79.3835 22.782 78.8166 22.3482 78.2628 21.7314C77.7936 21.2097 77.4684 20.6926 77.2778 20.167C77.0897 19.6459 76.9946 19.0206 76.9946 18.2991V12.2267C76.9946 11.5215 77.1512 10.8879 77.4719 10.3287C77.7515 9.84116 78.1868 9.34026 78.7746 8.83197C79.3624 8.31873 79.9628 7.96441 80.5651 7.77293C81.1694 7.58047 81.8904 7.48078 82.7168 7.48078H94.6349C95.4614 7.48078 96.1908 7.64314 96.8186 7.96441C97.4405 8.29011 98.0198 8.79002 98.5441 9.46166Z" fill="black"/>
<path fill-rule="evenodd" clip-rule="evenodd" d="M69.9433 13.382H55.1926C55.5853 11.8887 56.3868 10.5582 57.4629 9.55345L54.7419 6.86786C52.4781 9.10733 51.0703 12.1892 51.0703 15.6047C51.0703 19.0078 52.4781 22.0936 54.7419 24.3331L57.5874 21.5226C56.4313 20.4883 55.5773 19.0996 55.1756 17.5189H69.9558C69.5561 19.0951 68.7001 20.4838 67.55 21.5226L70.4041 24.3331C72.6638 22.0936 74.0736 19.0078 74.0736 15.6047C74.0736 12.1892 72.6638 9.10733 70.4041 6.86786L67.6745 9.55739C68.7466 10.5671 69.5481 11.8887 69.9433 13.382Z" fill="black"/>
</g>
<defs>
<clipPath id="clip0_2_5">
<rect width="200" height="30" fill="white"/>
</clipPath>
</defs>
</svg>
